<svg xmlns="http://www.w3.org/2000/svg" viewBox="0 0 32 32" fill="none">
  <rect width="32" height="32" rx="8" fill="#0B1220"/>
  <defs>
    <linearGradient id="g" x1="21" y1="6" x2="29" y2="13" gradientUnits="userSpaceOnUse">
      <stop stop-color="#E8C84A"/>
      <stop offset="1" stop-color="#D4AF37"/>
    </linearGradient>
  </defs>
  <path fill="#F1F5F9" fill-rule="evenodd" d="M6 5.5h10c4.6 0 8 3.3 8 7.5S20.6 20.5 16 20.5h-4.8v6H6V5.5zm4.8 4.4v6.4h5c2.3 0 3.8-1.4 3.8-3.4S18.1 9.9 15.8 9.9h-5z"/>
  <path d="M16.4 16.2c0-2.1 1.8-3.7 4.2-3.7 1.9 0 3.5 1.1 4 2.7.4 1.2-.1 2.5-1.2 3.1l-1.3.6c-.8.4-1.8.2-2.2-.5l-1-1.7z" fill="#94A3B8" fill-opacity="0.42"/>
  <path d="M22.6 9 27 6.8 28.5 10.2 24 12.3z" fill="url(#g)"/>
  <path d="M25.3 13.4 27.5 12.3 28.5 14.6 26.2 15.7z" fill="#D4AF37" fill-opacity="0.55"/>
</svg>
