<svg xmlns="http://www.w3.org/2000/svg" viewBox="0 0 40 40" fill="none">
  <defs>
    <linearGradient id="g" x1="26" y1="8" x2="36" y2="16" gradientUnits="userSpaceOnUse">
      <stop stop-color="#E8C84A"/>
      <stop offset="1" stop-color="#D4AF37"/>
    </linearGradient>
  </defs>
  <path fill="#F1F5F9" fill-rule="evenodd" d="M8 7h12.5c5.8 0 10 4.1 10 9.3S26.3 25.5 20.5 25.5H14v7.5H8V7zm6 5.5v8h6.3c2.9 0 4.7-1.7 4.7-4.2S23.2 12.5 20.3 12.5H14z"/>
  <path d="M20.5 20.2c0-2.6 2.3-4.6 5.2-4.6 2.4 0 4.4 1.4 5 3.4.5 1.5-.1 3.1-1.5 3.9l-1.6.8c-1 .5-2.2.2-2.8-.6l-1.3-2.1z" fill="#94A3B8" fill-opacity="0.42"/>
  <path d="M28.2 11.2 33.8 8.6 35.6 12.8 30 15.4z" fill="url(#g)"/>
  <path d="M31.6 16.8 34.4 15.4 35.6 18.2 32.8 19.6z" fill="#D4AF37" fill-opacity="0.55"/>
  <path d="M31.4 11.4l0.4 0.8 0.8 0.4-0.8 0.4-0.4 0.8-0.4-0.8-0.8-0.4 0.8-0.4z" fill="#F1F5F9" fill-opacity="0.92"/>
</svg>
