<svg xmlns="http://www.w3.org/2000/svg" viewBox="0 0 32 32" fill="none">
  <rect width="32" height="32" rx="7" fill="#0B1220"/>
  <path d="M5 4.5h9.5c5 0 8 3 8 7.5S19.5 19 15 19h-4.5v8.5H5V4.5zm9.5 11c2.8 0 4.5-1.5 4.5-4s-1.7-4-4.5-4H9.5v8h5z" fill="#E8EEF4"/>
  <path d="M16 17.5c-.6-3.2 2.2-6 5.5-6 2.5 0 4.5 1.4 5 3.5l3.8 1.2c.8.2 1.2 1 1 1.8l-1.5 3.8c-.3.8-1.1 1.2-1.9 1l-3.5-1.2c-1.2 2.5-4 3.7-7 2.7-2-.7-3.2-2.4-3-4.3l-2.3-2.7z" fill="#E8EEF4" opacity="0.95"/>
  <path d="M21.5 8.5l3.2-2.2 1.8 2.5-3.2 2.2-1.8-2.5z" fill="#D4AF37"/>
  <path d="M24.5 13.5l2.5-1.8 1.4 2.2-2.5 1.8-1.4-2.2z" fill="#D4AF37" opacity="0.9"/>
</svg>
